# File created by Blade
# Date/Time:  Tue Jan 27 18:01:49 2015
# Frame Rate: 120.000 fps
#------------------------------------------------------
:FULLY-SPECIFIED
:DEGREES
1818
root -1.569069 31.940549 -5.818974 8.116379 18.638130 4.321754
Spine -6.629777 -8.864662 -4.282905
Head -2.495671 -35.221404 1.336297
LeftShoulder -13.743120 14.839810 7.159681
LeftArm 27.013709 41.955306 -70.094573
LeftForeArm -2.366742 -0.000000 13.234487
LeftHand -11.125172 -0.000000 -6.731359
LeftHandThumb1 -26.253704 0.000000 33.147579
RightShoulder -12.288675 24.294555 -48.105831
RightArm 35.372422 69.576086 47.721115
RightForeArm 28.466256 -0.000000 113.262763
RightHand -2.532330 -0.000000 10.542005
RightHandThumb1 -24.326973 -0.000000 -32.862282
LeftUpLeg -3.443859 -7.135929 -0.132051
LeftLeg 0.756824 -0.000000 -0.000000
LeftFoot -14.416454 12.368050 -24.462571
LeftToeBase 8.678115 -0.000000 -0.000000
RightUpLeg 2.614695 -11.507893 -2.795315
RightLeg -3.606320 -0.000000 0.000000
RightFoot -16.671012 -17.499106 10.870090
RightToeBase 5.113805 -0.000000 -0.000000
1819
root -1.566202 31.940246 -5.820888 8.118583 18.678850 4.341845
Spine -6.616554 -8.860985 -4.289186
Head -2.530829 -34.676785 1.439306
LeftShoulder -13.691697 14.820815 7.177464
LeftArm 27.157004 41.969267 -70.026965
LeftForeArm -2.410661 -0.000000 13.306992
LeftHand -11.167550 0.000000 -6.812498
LeftHandThumb1 -26.253704 0.000000 33.147579
RightShoulder -12.322226 24.482931 -48.203606
RightArm 36.252941 69.617802 48.562317
RightForeArm 28.418922 -0.000000 113.262694
RightHand -2.378071 -0.000000 10.714482
RightHandThumb1 -24.326973 -0.000000 -32.862282
LeftUpLeg -3.430093 -7.151888 -0.159225
LeftLeg 0.725319 -0.000000 -0.000000
LeftFoot -14.393788 12.397301 -24.468044
LeftToeBase 8.686024 -0.000000 -0.000000
RightUpLeg 2.633785 -11.496881 -2.816214
RightLeg -3.624602 -0.000000 0.000000
RightFoot -16.670205 -17.546579 10.874049
RightToeBase 5.100980 -0.000000 -0.000000
1820
root -1.563679 31.940330 -5.823091 8.123547 18.729316 4.359087
Spine -6.591996 -8.858028 -4.295091
Head -2.597760 -34.061952 1.587574
LeftShoulder -13.651385 14.754679 7.192941
LeftArm 27.275950 42.000325 -69.975606
LeftForeArm -2.452484 -0.000000 13.336629
LeftHand -11.089212 -0.000000 -6.649992
LeftHandThumb1 -26.253704 0.000000 33.147579
RightShoulder -12.355380 24.533025 -48.267104
RightArm 37.319457 69.771668 49.561000
RightForeArm 28.334833 -0.000000 113.276747
RightHand -2.426767 -0.000000 10.777653
RightHandThumb1 -24.326973 -0.000000 -32.862282
LeftUpLeg -3.426980 -7.151451 -0.171487
LeftLeg 0.704143 -0.000000 -0.000000
LeftFoot -14.359299 12.317532 -24.516726
LeftToeBase 8.680804 -0.000000 -0.000000
RightUpLeg 2.649011 -11.471652 -2.830859
RightLeg -3.642078 -0.000000 0.000000
RightFoot -16.683323 -17.617408 10.889770
RightToeBase 5.123005 -0.000000 -0.000000
1821
root -1.565526 31.938925 -5.824197 8.118461 18.800861 4.343067
Spine -6.578188 -8.886111 -4.279358
Head -2.646550 -33.384344 1.772531
LeftShoulder -13.601318 14.738333 7.222653
LeftArm 27.377114 41.947796 -69.973831
LeftForeArm -2.370382 -0.000000 13.406633
LeftHand -11.208593 0.000000 -6.701928
LeftHandThumb1 -26.253704 0.000000 33.147579
RightShoulder -12.365158 24.644106 -48.333765
RightArm 38.292854 69.875963 50.502799
RightForeArm 28.343593 -0.000000 113.282182
RightHand -2.377290 0.000000 10.609795
RightHandThumb1 -24.326973 -0.000000 -32.862282
LeftUpLeg -3.441599 -7.113681 -0.142403
LeftLeg 0.705580 -0.000000 -0.000000
LeftFoot -14.311976 12.211880 -24.451396
LeftToeBase 8.669359 -0.000000 -0.000000
RightUpLeg 2.671622 -11.420126 -2.802768
RightLeg -3.671764 -0.000000 0.000000
RightFoot -16.686583 -17.726987 10.913953
RightToeBase 5.088508 -0.000000 -0.000000
1822
root -1.558422 31.939712 -5.827655 8.142962 18.871838 4.408453
Spine -6.555908 -8.905080 -4.332510
Head -2.700140 -32.714114 1.964827
LeftShoulder -13.555251 14.699346 7.227982
LeftArm 27.455985 41.897150 -69.975522
LeftForeArm -2.412075 -0.000000 13.466698
LeftHand -11.192100 -0.000000 -6.701523
LeftHandThumb1 -26.253704 0.000000 33.147579
RightShoulder -12.436628 24.818478 -48.432663
RightArm 39.120769 69.910285 51.296727
RightForeArm 28.423504 -0.000000 113.313183
RightHand -2.554724 -0.000000 10.670692
RightHandThumb1 -24.326973 -0.000000 -32.862282
LeftUpLeg -3.384616 -7.402024 -0.188791
LeftLeg 0.550033 -0.000000 -0.000000
LeftFoot -14.276478 12.410809 -24.506821
LeftToeBase 8.689181 -0.000000 -0.000000
RightUpLeg 2.688898 -11.412685 -2.872282
RightLeg -3.688194 -0.000000 0.000000
RightFoot -16.719888 -17.781818 10.956472
RightToeBase 5.132529 -0.000000 -0.000000
1823
root -1.559415 31.938777 -5.829489 8.145195 18.974952 4.407619
Spine -6.527408 -8.937432 -4.329532
Head -2.740525 -31.957206 2.183915
LeftShoulder -13.494430 14.645102 7.245139
LeftArm 27.530075 41.883779 -69.969860
LeftForeArm -2.379784 -0.000000 13.515759
LeftHand -11.322557 -0.000000 -6.817107
LeftHandThumb1 -26.253704 0.000000 33.147579
RightShoulder -12.581512 25.083117 -48.549415
RightArm 39.796845 69.768482 51.938913
RightForeArm 28.402465 -0.000000 113.315847
RightHand -2.510134 -0.000000 10.557540
RightHandThumb1 -24.326973 -0.000000 -32.862282
LeftUpLeg -3.419078 -7.354478 -0.182802
LeftLeg 0.588894 -0.000000 -0.000000
LeftFoot -14.240191 12.299154 -24.463141
LeftToeBase 8.673713 -0.000000 -0.000000
RightUpLeg 2.711634 -11.393903 -2.856891
RightLeg -3.711413 -0.000000 0.000000
RightFoot -16.733499 -17.894619 10.974039
RightToeBase 5.157804 -0.000000 -0.000000
1824
root -1.558655 31.938257 -5.831262 8.154945 19.065079 4.419232
Spine -6.498883 -8.959519 -4.349779
Head -2.794965 -31.220068 2.434687
LeftShoulder -13.454604 14.575955 7.260735
LeftArm 27.628896 41.923876 -69.940773
LeftForeArm -2.380269 -0.000000 13.495138
LeftHand -11.220669 -0.000000 -6.572587
LeftHandThumb1 -26.253704 0.000000 33.147579
RightShoulder -12.597247 25.130399 -48.637542
RightArm 40.549161 69.939200 52.731542
RightForeArm 28.538866 -0.000000 113.389333
RightHand -2.504296 -0.000000 10.470762
RightHandThumb1 -24.326973 -0.000000 -32.862282
LeftUpLeg -3.421667 -7.414842 -0.188275
LeftLeg 0.564891 -0.000000 -0.000000
LeftFoot -14.231031 12.289441 -24.501163
LeftToeBase 8.677481 -0.000000 -0.000000
RightUpLeg 2.724616 -11.385356 -2.856579
RightLeg -3.726805 -0.000000 0.000000
RightFoot -16.754470 -17.974880 11.004395
RightToeBase 5.168003 -0.000000 -0.000000
1825
root -1.554652 31.938515 -5.833673 8.170431 19.157245 4.458968
Spine -6.472852 -8.995481 -4.396176
Head -2.849272 -30.475863 2.689023
LeftShoulder -13.421000 14.534498 7.254536
LeftArm 27.762169 41.978013 -69.868044
LeftForeArm -2.387506 0.000000 13.481685
LeftHand -11.298798 -0.000000 -6.479664
LeftHandThumb1 -26.253704 0.000000 33.147579
RightShoulder -12.621583 25.188169 -48.693818
RightArm 41.451247 70.080559 53.649502
RightForeArm 28.631105 -0.000000 113.472098
RightHand -2.562582 -0.000000 10.359344
RightHandThumb1 -24.326973 -0.000000 -32.862282
LeftUpLeg -3.416425 -7.545548 -0.209863
LeftLeg 0.523298 -0.000000 -0.000000
LeftFoot -14.201346 12.300974 -24.561801
LeftToeBase 8.682658 -0.000000 -0.000000
RightUpLeg 2.739592 -11.368325 -2.891086
RightLeg -3.731333 -0.000000 0.000000
RightFoot -16.776689 -18.077393 11.018292
RightToeBase 5.110113 -0.000000 -0.000000
1826
root -1.555133 31.937797 -5.835269 8.185250 19.257965 4.468966
Spine -6.450066 -9.034904 -4.416101
Head -2.902103 -29.683344 2.975986
LeftShoulder -13.399529 14.466498 7.245394
LeftArm 27.860474 42.045553 -69.798524
LeftForeArm -2.474679 -0.000000 13.487704
LeftHand -11.360190 -0.000000 -6.512572
LeftHandThumb1 -26.253704 0.000000 33.147579
RightShoulder -12.673495 25.240870 -48.762136
RightArm 42.320881 70.185647 54.543287
RightForeArm 28.790671 -0.000000 113.525714
RightHand -2.517221 -0.000000 10.538414
RightHandThumb1 -24.326973 -0.000000 -32.862282
LeftUpLeg -3.432031 -7.616445 -0.202069
LeftLeg 0.500948 -0.000000 -0.000000
LeftFoot -14.175307 12.285826 -24.541033
LeftToeBase 8.727712 -0.000000 -0.000000
RightUpLeg 2.745843 -11.350665 -2.886306
RightLeg -3.739762 -0.000000 0.000000
RightFoot -16.801413 -18.171510 11.055443
RightToeBase 5.131029 -0.000000 -0.000000
1827
root -1.556037 31.937182 -5.837405 8.203344 19.355210 4.474901
Spine -6.446557 -9.064505 -4.436988
Head -2.891977 -28.886269 3.240159
LeftShoulder -13.359184 14.436294 7.230670
LeftArm 27.974183 42.076765 -69.731369
LeftForeArm -2.546839 -0.000000 13.463364
LeftHand -11.257639 -0.000000 -6.508743
LeftHandThumb1 -26.253704 0.000000 33.147579
RightShoulder -12.785617 25.382557 -48.817939
RightArm 43.167266 70.098913 55.397639
RightForeArm 28.718470 -0.000000 113.586431
RightHand -2.508009 -0.000000 10.508011
RightHandThumb1 -24.326973 -0.000000 -32.862282
LeftUpLeg -3.457398 -7.668080 -0.191158
LeftLeg 0.490323 -0.000000 -0.000000
LeftFoot -14.143777 12.233408 -24.572090
LeftToeBase 8.663855 -0.000000 -0.000000
RightUpLeg 2.749539 -11.315547 -2.877569
RightLeg -3.751059 -0.000000 0.000000
RightFoot -16.824162 -18.275403 11.078568
RightToeBase 5.133784 -0.000000 -0.000000
1828
root -1.556315 31.936636 -5.837634 8.216158 19.438174 4.479549
Spine -6.435986 -9.080011 -4.471446
Head -2.932319 -28.160470 3.515141
LeftShoulder -13.325323 14.371482 7.227646
LeftArm 28.010052 42.104728 -69.724925
LeftForeArm -2.582658 -0.000000 13.445110
LeftHand -11.210279 -0.000000 -6.498451
LeftHandThumb1 -26.253704 0.000000 33.147579
RightShoulder -12.769123 25.361495 -48.834622
RightArm 43.964898 70.288618 56.219611
RightForeArm 28.702144 0.000000 113.719361
RightHand -2.650661 -0.000000 10.358190
RightHandThumb1 -24.326973 -0.000000 -32.862282
LeftUpLeg -3.467910 -7.682861 -0.182380
LeftLeg 0.458396 -0.000000 -0.000000
LeftFoot -14.081178 12.208206 -24.435993
LeftToeBase 8.687445 -0.000000 -0.000000
RightUpLeg 2.750011 -11.283013 -2.869356
RightLeg -3.747101 -0.000000 0.000000
RightFoot -16.866425 -18.363506 11.121333
RightToeBase 5.181275 -0.000000 -0.000000
